<svg xmlns="http://www.w3.org/2000/svg" width="176" height="129">
    <path fill-rule="evenodd" fill="#BBB" d="M173.856 80.823H171.2v2.695c0 .694-.597 1.291-1.29 1.291a1.315 1.315 0 0 1-1.289-1.291v-2.657h-2.656a1.315 1.315 0 0 1-1.291-1.29c0-.289.212-.597.405-.886.192-.308.5-.404.886-.404h2.656v-2.657c0-.694.596-1.29 1.289-1.29.289 0 .597.192.885.385.289.193.386.481.386.885v2.638h2.675c.693 0 1.29.598 1.29 1.291s-.597 1.29-1.29 1.29zm-8.246-45.119c-3.938 0-7.142-3.204-7.142-7.142 0-3.939 3.204-7.143 7.142-7.143 2.506 0 4.947 1.392 6.218 3.546l.009.017c1.263 2.209 1.259 5.026-.009 7.176a7.152 7.152 0 0 1-6.218 3.546zm3.788-9.317c-.763-1.288-2.285-2.153-3.788-2.153a4.332 4.332 0 0 0-4.327 4.328 4.332 4.332 0 0 0 4.327 4.327 4.362 4.362 0 0 0 3.793-2.161l.001-.001c.75-1.271.748-3.014-.006-4.34zm-13.732 80.719H122.75v4.043c0 1.676-.385 3.255-1.175 4.641l-1.174 1.964h3.754c.693 0 1.289.597 1.289 1.29 0 .693-.596 1.29-1.289 1.29h-16.17l1.175 2.08c.885 1.579.692 3.543-.597 4.833-.674.789-1.771 1.174-2.753 1.174-.981 0-2.059-.481-2.752-1.174l-6.796-6.797H29.525c-.288 0-.692-.193-.884-.385-.309-.193-.405-.597-.405-.886 0-.694.597-1.29 1.289-1.29h14.188l-1.175-1.965a9.826 9.826 0 0 1-1.174-4.639V34.668c0-2.464.982-4.736 2.753-6.508 1.771-1.675 4.042-2.657 6.506-2.657h9.163v-4.044c0-2.464.885-4.737 2.656-6.508 1.771-1.675 4.042-2.657 6.507-2.657h63.06c2.463 0 4.831.982 6.506 2.657 1.675 1.771 2.656 4.044 2.656 6.508v76.732c0 1.675-.384 3.254-1.174 4.64l-1.174 1.964h16.862c.693 0 1.289.501 1.271 1.021 0 .693-.597 1.29-1.29 1.29zM50.315 28.083c-3.542 0-6.41 2.965-6.41 6.508v76.905c0 3.639 2.965 6.605 6.602 6.605h43.061l-3.638-3.64c-.982-.981-1.367-2.464-.982-3.85l.192-.79-3.849-3.851-.886.693c-7.083 5.334-17.247 4.14-23.06-2.561-5.814-6.816-5.525-17.06.789-23.376 6.314-6.411 16.574-6.796 23.272-.885 6.699 5.931 7.796 16.078 2.464 23.279l-.692.886 3.849 3.851.789-.192c1.29-.405 2.772 0 3.754.981l9.162 9.262h8.875c3.637 0 6.602-2.965 6.602-6.604V34.591c0-3.543-2.868-6.508-6.41-6.508H50.315zm38.344 64.774c0-3.851-1.481-7.509-4.234-10.263a14.448 14.448 0 0 0-10.26-4.236c-3.85 0-7.508 1.483-10.26 4.236-2.753 2.677-4.235 6.412-4.235 10.263a14.359 14.359 0 0 0 4.235 10.263c2.868 2.85 6.506 4.236 10.26 4.236 3.754 0 7.391-1.367 10.26-4.236 2.752-2.753 4.234-6.412 4.234-10.263zm49.99-71.282c0-3.639-2.963-6.605-6.602-6.605H68.949c-3.639 0-6.603 2.966-6.603 6.605v3.947h51.261c2.464 0 4.831.982 6.505 2.657 1.675 1.772 2.657 4.044 2.657 6.509v70.011h9.259c3.638 0 6.602-2.965 6.602-6.604h.019v-76.52zM99.123 50.404h-2.007c-5.354 0-6.694-4.464-6.694-4.464-.223-.446.224-.892.446-.892.447-.223.893.223.893.446s1.338 4.463 7.139 3.348c.446 0 .892.223.892.669 0 .446-.223.893-.669.893zm-6.692 2.901c1.562 0 2.901 1.338 2.901 2.9 0 1.563-1.34 2.902-2.901 2.902-1.563 0-2.901-1.34-2.901-2.902s1.34-2.9 2.901-2.9zm-9.816 18.076c-3.57 0-6.246-2.232-6.246-2.232-.223-.223-.223-.669 0-1.116.223-.223.669-.223 1.115 0 .224.224 4.908 4.24 10.485 0 .446-.223.893-.223 1.116.224.224.223.224.892-.222 1.115-2.232 1.338-4.464 2.009-6.248 2.009zM71.683 59.107c-1.563 0-2.901-1.34-2.901-2.902s1.338-2.9 2.901-2.9c1.562 0 2.901 1.338 2.901 2.9 0 1.563-1.339 2.902-2.901 2.902zm-5.354-8.703h-1.338c-.446 0-.669-.447-.669-.893s.445-.669.892-.669c2.677.223 4.684-.224 5.8-1.338 1.115-.893 1.115-2.01 1.115-2.01 0-.446.446-.669.892-.669s.669.446.669.892c0 0 0 1.787-1.561 3.125-1.561 1.115-3.347 1.562-5.8 1.562zm-30.893-40.19H31.49v3.947a1.973 1.973 0 0 1-1.964 1.965c-.501 0-.982-.193-1.386-.597-.385-.289-.596-.79-.596-1.387v-3.908h-3.946c-.501 0-.982-.193-1.387-.597-.385-.289-.596-.79-.596-1.387 0-1.078.885-1.964 1.963-1.964h3.946V2.339c0-1.078.886-1.964 1.964-1.964 1.078 0 1.963.886 1.963 1.964v3.947H35.436c1.078 0 1.963.886 1.963 1.964a1.972 1.972 0 0 1-1.963 1.964zM20.344 91.49h-2.656v2.657c0 .693-.597 1.29-1.29 1.29-.385 0-.693-.096-.885-.385-.29-.192-.385-.597-.385-.886V91.51h-2.676c-.693 0-1.29-.597-1.29-1.291 0-.693.597-1.29 1.29-1.29h2.656v-2.657c0-.694.597-1.29 1.29-1.29.693 0 1.29.596 1.29 1.29v2.638h2.656c.693 0 1.29.597 1.29 1.29 0 .693-.597 1.29-1.29 1.29zM7.637 58.663C3.7 58.663.496 55.459.496 51.52c0-3.939 3.204-7.143 7.141-7.143 2.508 0 4.948 1.392 6.218 3.547l.01.016c1.263 2.21 1.259 5.027-.01 7.177a7.151 7.151 0 0 1-6.218 3.546zm3.789-9.317c-.763-1.289-2.285-2.153-3.789-2.153a4.332 4.332 0 0 0-4.326 4.327 4.332 4.332 0 0 0 4.326 4.328 4.36 4.36 0 0 0 3.794-2.162h.001c.75-1.272.748-3.015-.006-4.34zm-8.233 68.658h15.765c.789 0 1.27.578 1.27 1.272 0 .692-.596 1.289-1.289 1.289H3.174c-.289 0-.693-.192-.885-.385-.29-.193-.385-.501-.385-.886 0-.693.596-1.29 1.289-1.29zm132.718.186h16.43a1.094 1.094 0 0 1 0 2.189h-16.43a1.094 1.094 0 0 1 0-2.189z"/>
</svg>
